<svg width="200" height="72" viewBox="0 0 200 72" fill="none" xmlns="http://www.w3.org/2000/svg">
<g clip-path="url(#clip0_107_909)">
<g clip-path="url(#clip1_107_909)">
<g clip-path="url(#clip2_107_909)">
<mask id="mask0_107_909" style="mask-type:luminance" maskUnits="userSpaceOnUse" x="0" y="0" width="200" height="72">
<path d="M200 0H0V72H200V0Z" fill="white"/>
</mask>
<g mask="url(#mask0_107_909)">
<path d="M81.9805 25.6494H86.2923V48.8664H81.9805V25.6494Z" fill="#2C2C2C"/>
<path d="M100.565 30.9561C102.798 30.9561 104.589 31.6083 105.938 32.9129C107.287 34.2175 107.961 36.1523 107.961 38.7172V48.8663H103.815V39.2481C103.815 37.7 103.45 36.5393 102.721 35.7653C101.991 34.9693 100.952 34.5713 99.6029 34.5713C98.0769 34.5713 96.8716 35.0357 95.9874 35.9643C95.1029 36.8709 94.6604 38.1867 94.6604 39.9112V48.8663H90.5146V31.1551H94.4615V33.4436C95.1471 32.6255 96.0096 32.0064 97.0489 31.5862C98.0882 31.1661 99.2601 30.9561 100.565 30.9561Z" fill="#2C2C2C"/>
<path d="M127.822 31.1543L120.226 48.8655H115.948L108.353 31.1543H112.664L118.17 44.2885L123.842 31.1543H127.822Z" fill="#2C2C2C"/>
<path d="M144.919 40.1101C144.919 40.3979 144.897 40.8066 144.853 41.3375H130.955C131.199 42.642 131.829 43.6812 132.846 44.4553C133.885 45.2072 135.168 45.5829 136.693 45.5829C138.639 45.5829 140.242 44.9415 141.503 43.6591L143.725 46.2131C142.929 47.1639 141.923 47.8825 140.707 48.3687C139.49 48.8554 138.12 49.0986 136.594 49.0986C134.648 49.0986 132.935 48.7116 131.453 47.9379C129.972 47.1639 128.822 46.0913 128.004 44.7205C127.207 43.3276 126.81 41.7574 126.81 40.0109C126.81 38.286 127.197 36.7382 127.971 35.3673C128.766 33.9743 129.861 32.8908 131.254 32.1169C132.647 31.343 134.217 30.9561 135.964 30.9561C137.688 30.9561 139.225 31.343 140.574 32.1169C141.945 32.8687 143.006 33.9411 143.758 35.3341C144.532 36.7051 144.919 38.2972 144.919 40.1101ZM135.964 34.2728C134.637 34.2728 133.509 34.6708 132.581 35.4668C131.674 36.2407 131.121 37.2801 130.922 38.5846H140.972C140.795 37.3022 140.253 36.2628 139.347 35.4668C138.44 34.6708 137.313 34.2728 135.964 34.2728Z" fill="#2C2C2C"/>
<path d="M151.19 33.7414C152.384 31.884 154.485 31.287 157.492 31.287V34.6037C157.138 34.5374 156.818 34.5042 156.53 34.5042C154.916 34.5042 153.656 35.2781 152.749 36.2289C151.843 37.1575 151.389 38.5062 151.389 40.2753V48.8655H147.243V31.1543H151.19V33.7414Z" fill="#2C2C2C"/>
<path d="M171.479 47.9045C170.992 48.3023 170.396 48.6009 169.688 48.7999C169.003 48.9992 168.273 49.0985 167.499 49.0985C165.553 49.0985 164.05 48.5901 162.988 47.5729C161.927 46.5558 161.396 45.074 161.396 43.1285V34.6044H158.478V31.2876H161.396V27.2412H165.542V31.2876H170.285V34.6044H165.542V43.0289C165.542 43.8913 165.752 44.5544 166.172 45.019C166.592 45.461 167.2 45.6825 167.996 45.6825C168.925 45.6825 169.699 45.4389 170.318 44.9527L171.479 47.9045Z" fill="#2C2C2C"/>
<path fill-rule="evenodd" clip-rule="evenodd" d="M71.1367 37.3257C71.1367 49.0724 61.6144 58.5947 49.8676 58.5947C38.1211 58.5947 28.5986 49.0724 28.5986 37.3257C28.5986 25.5791 38.1211 16.0566 49.8676 16.0566C61.6144 16.0566 71.1367 25.5791 71.1367 37.3257ZM64.4523 37.3257C64.4523 45.3804 57.9228 51.9099 49.8681 51.9099C49.3096 51.9099 48.7584 51.8787 48.2162 51.8178C55.546 51.0475 61.2587 44.8478 61.2587 37.3136C61.2587 29.8174 55.6028 23.642 48.3258 22.8218C48.8326 22.7685 49.3472 22.7412 49.8681 22.7412C57.9228 22.7412 64.4523 29.2709 64.4523 37.3257ZM45.158 47.5986C49.9648 46.7495 53.621 42.4732 53.621 37.3257C53.621 32.178 49.9648 27.9016 45.158 27.0528C45.7397 26.9521 46.3379 26.8997 46.9483 26.8997C52.7064 26.8997 57.3744 31.5676 57.3744 37.3257C57.3744 43.0837 52.7064 47.7516 46.9483 47.7516C46.3379 47.7516 45.7397 47.6991 45.158 47.5986Z" fill="#2C2C2C"/>
</g>
</g>
</g>
</g>
<defs>
<clipPath id="clip0_107_909">
<rect width="200" height="72" fill="white"/>
</clipPath>
<clipPath id="clip1_107_909">
<rect width="200" height="72" fill="white"/>
</clipPath>
<clipPath id="clip2_107_909">
<rect width="200" height="72" fill="white"/>
</clipPath>
</defs>
</svg>
