<svg width="32" height="32" viewBox="0 0 32 32" fill="none" xmlns="http://www.w3.org/2000/svg">
<g clip-path="url(#clip0_421_118)">
<path d="M24 0H8C3.58172 0 0 3.58172 0 8V24C0 28.4183 3.58172 32 8 32H24C28.4183 32 32 28.4183 32 24V8C32 3.58172 28.4183 0 24 0Z" fill="#3B5948"/>
<path d="M8 0.5H24C28.1421 0.5 31.5 3.85786 31.5 8V24C31.5 28.1421 28.1421 31.5 24 31.5H8C3.85786 31.5 0.5 28.1421 0.5 24V8C0.5 3.85786 3.85786 0.5 8 0.5Z" stroke="black" stroke-opacity="0.18"/>
<path d="M14 13.3333H12V16H14V24H17.3333V16H19.7613L20 13.3333H17.3333V12.2213C17.3333 11.5853 17.4613 11.3333 18.076 11.3333H20V8H17.4613C15.064 8 14 9.056 14 11.076V13.3333Z" fill="white"/>
</g>
<defs>
<clipPath id="clip0_421_118">
<rect width="32" height="32" fill="white"/>
</clipPath>
</defs>
</svg>
