<svg width="35" height="35" viewBox="0 0 35 35" fill="none" xmlns="http://www.w3.org/2000/svg">
<g clip-path="url(#clip0_107_629)">
<path d="M7.22388 25.7553H6.575C6.41823 25.7553 6.29053 25.6276 6.29053 25.4709V23.3104C6.29053 23.1536 6.41823 23.0259 6.575 23.0259H7.57169C7.65474 23.0259 7.73365 23.0622 7.78867 23.1255C7.84266 23.1889 7.86654 23.273 7.85304 23.355L7.50524 25.5155C7.48344 25.6536 7.36404 25.7543 7.22492 25.7543L7.22388 25.7553ZM6.85947 25.1864H6.98198L7.23842 23.5948H6.86051V25.1864H6.85947Z" fill="#010101"/>
<path d="M19.0761 23.5948H5.88457C5.7278 23.5948 5.6001 23.4671 5.6001 23.3104V9.22282C5.6001 7.99669 6.59679 7 7.82292 7H18.5155C19.7406 7 20.7383 7.99669 20.7383 9.22282V16.4208C20.7383 16.5775 20.6106 16.7052 20.4539 16.7052C20.2971 16.7052 20.1694 16.5775 20.1694 16.4208V9.22282C20.1694 8.31127 19.4271 7.56894 18.5155 7.56894H7.82292C6.91136 7.56894 6.16904 8.31127 6.16904 9.22282V23.0269H19.0772C19.234 23.0269 19.3617 23.1546 19.3617 23.3114C19.3617 23.4682 19.234 23.5959 19.0772 23.5959L19.0761 23.5948Z" fill="#010101"/>
<path d="M12.769 22.2971H7.26128C7.10451 22.2971 6.97681 22.1694 6.97681 22.0127V10.3701C6.97681 9.25817 7.83853 8.35388 8.89751 8.35388H12.769C12.9258 8.35388 13.0535 8.48158 13.0535 8.63835V22.0127C13.0535 22.1694 12.9258 22.2971 12.769 22.2971ZM7.54575 21.7282H12.4845V8.92282H8.89751C8.15207 8.92282 7.54575 9.57171 7.54575 10.3701V21.7282Z" fill="#010101"/>
<path d="M19.0761 22.2971H13.5684C13.4116 22.2971 13.2839 22.1694 13.2839 22.0127V8.63835C13.2839 8.48158 13.4116 8.35388 13.5684 8.35388H17.4399C18.4989 8.35388 19.3606 9.25817 19.3606 10.3701V16.4198C19.3606 16.5766 19.2329 16.7043 19.0761 16.7043C18.9194 16.7043 18.7917 16.5766 18.7917 16.4198V10.3701C18.7917 9.57171 18.1854 8.92282 17.4399 8.92282H13.8529V21.7282H19.0761C19.2329 21.7282 19.3606 21.8559 19.3606 22.0127C19.3606 22.1694 19.2329 22.2971 19.0761 22.2971Z" fill="#010101"/>
<path d="M28.8687 28H19.0845C18.9277 28 18.8 27.8723 18.8 27.7155V16.4197C18.8 16.263 18.9277 16.1353 19.0845 16.1353H28.8687C29.0254 16.1353 29.1531 16.263 29.1531 16.4197V27.7155C29.1531 27.8723 29.0254 28 28.8687 28ZM19.368 27.431H28.5842V16.7042H19.368V27.431Z" fill="#010101"/>
<path d="M28.0982 20.2653H20.0115C19.8548 20.2653 19.7271 20.1376 19.7271 19.9809V17.3334C19.7271 17.1767 19.8548 17.049 20.0115 17.049H28.0982C28.255 17.049 28.3827 17.1767 28.3827 17.3334V19.9809C28.3827 20.1376 28.255 20.2653 28.0982 20.2653ZM20.296 19.6974H27.8137V17.6189H20.296V19.6974Z" fill="#010101"/>
<path d="M28.0982 23.6759H20.0115C19.8548 23.6759 19.7271 23.5482 19.7271 23.3914V20.7439C19.7271 20.5872 19.8548 20.4595 20.0115 20.4595H28.0982C28.255 20.4595 28.3827 20.5872 28.3827 20.7439V23.3914C28.3827 23.5482 28.255 23.6759 28.0982 23.6759ZM20.296 23.1069H27.8137V21.0284H20.296V23.1069Z" fill="#010101"/>
<path d="M28.0982 27.0864H20.0115C19.8548 27.0864 19.7271 26.9587 19.7271 26.8019V24.1545C19.7271 23.9977 19.8548 23.87 20.0115 23.87H28.0982C28.255 23.87 28.3827 23.9977 28.3827 24.1545V26.8019C28.3827 26.9587 28.255 27.0864 28.0982 27.0864ZM20.296 26.5174H27.8137V24.4389H20.296V26.5174Z" fill="#010101"/>
<path d="M11.3694 16.1384C10.9386 16.1384 10.5876 15.7875 10.5876 15.3566C10.5876 14.9257 10.9386 14.5748 11.3694 14.5748C11.8003 14.5748 12.1512 14.9257 12.1512 15.3566C12.1512 15.7875 11.8003 16.1384 11.3694 16.1384ZM11.3694 15.1448C11.2521 15.1448 11.1566 15.2403 11.1566 15.3576C11.1566 15.475 11.2521 15.5705 11.3694 15.5705C11.4867 15.5705 11.5823 15.475 11.5823 15.3576C11.5823 15.2403 11.4867 15.1448 11.3694 15.1448Z" fill="#010101"/>
<path d="M14.969 16.1384C14.5382 16.1384 14.1873 15.7875 14.1873 15.3566C14.1873 14.9257 14.5382 14.5748 14.969 14.5748C15.3999 14.5748 15.7508 14.9257 15.7508 15.3566C15.7508 15.7875 15.3999 16.1384 14.969 16.1384ZM14.969 15.1448C14.8517 15.1448 14.7562 15.2403 14.7562 15.3576C14.7562 15.475 14.8517 15.5705 14.969 15.5705C15.0864 15.5705 15.1819 15.475 15.1819 15.3576C15.1819 15.2403 15.0864 15.1448 14.969 15.1448Z" fill="#010101"/>
<path d="M24.6741 18.9416H23.4366C23.2798 18.9416 23.1521 18.8139 23.1521 18.6572C23.1521 18.5004 23.2798 18.3727 23.4366 18.3727H24.6741C24.8309 18.3727 24.9586 18.5004 24.9586 18.6572C24.9586 18.8139 24.8309 18.9416 24.6741 18.9416Z" fill="#010101"/>
<path d="M24.6741 22.3521H23.4366C23.2798 22.3521 23.1521 22.2244 23.1521 22.0677C23.1521 21.9109 23.2798 21.7832 23.4366 21.7832H24.6741C24.8309 21.7832 24.9586 21.9109 24.9586 22.0677C24.9586 22.2244 24.8309 22.3521 24.6741 22.3521Z" fill="#010101"/>
<path d="M24.6741 25.7627H23.4366C23.2798 25.7627 23.1521 25.635 23.1521 25.4782C23.1521 25.3214 23.2798 25.1937 23.4366 25.1937H24.6741C24.8309 25.1937 24.9586 25.3214 24.9586 25.4782C24.9586 25.635 24.8309 25.7627 24.6741 25.7627Z" fill="#010101"/>
</g>
<defs>
<clipPath id="clip0_107_629">
<rect width="23.5519" height="21" fill="white" transform="translate(5.6001 7)"/>
</clipPath>
</defs>
</svg>
