<svg width="32" height="32" viewBox="0 0 32 32" fill="none" xmlns="http://www.w3.org/2000/svg">
<g clip-path="url(#clip0_421_121)">
<path d="M24 0H8C3.58172 0 0 3.58172 0 8V24C0 28.4183 3.58172 32 8 32H24C28.4183 32 32 28.4183 32 24V8C32 3.58172 28.4183 0 24 0Z" fill="#3B5948"/>
<path d="M8 0.5H24C28.1421 0.5 31.5 3.85786 31.5 8V24C31.5 28.1421 28.1421 31.5 24 31.5H8C3.85786 31.5 0.5 28.1421 0.5 24V8C0.5 3.85786 3.85786 0.5 8 0.5Z" stroke="black" stroke-opacity="0.18"/>
<path d="M11.32 10.3337C11.32 11.2537 10.58 12.0003 9.66667 12.0003C8.75333 12.0003 8.01333 11.2537 8.01333 10.3337C8.01333 9.41366 8.75333 8.66699 9.66667 8.66699C10.58 8.66699 11.32 9.41366 11.32 10.3337ZM11.3333 13.3337H8V24.0003H11.3333V13.3337ZM16.6547 13.3337H13.3427V24.0003H16.656V18.4003C16.656 15.287 20.6747 15.0323 20.6747 18.4003V24.0003H24V17.2457C24 11.9923 18.052 12.1843 16.6547 14.771V13.3337Z" fill="white"/>
</g>
<defs>
<clipPath id="clip0_421_121">
<rect width="32" height="32" fill="white"/>
</clipPath>
</defs>
</svg>
