<svg width="294" height="28" viewBox="0 0 294 28" fill="none" xmlns="http://www.w3.org/2000/svg">
<path d="M2.97105 11.4242C2.03532 10.3776 1.56868 9.01919 1.56868 7.34914C1.56868 6.00305 1.90515 4.82015 2.57932 3.79801C3.25226 2.77586 4.15606 1.99176 5.29196 1.44326C6.42539 0.895988 7.69145 0.621124 9.08768 0.621124C10.4839 0.621124 11.6996 0.815001 12.7348 1.2003C13.7688 1.58683 14.9354 2.24086 16.2321 3.16238L14.8101 5.63002C13.7627 4.88274 12.7839 4.30969 11.874 3.9109C10.9628 3.5121 10.0345 3.31331 9.08645 3.31331C7.96407 3.31331 7.05413 3.53173 6.3554 3.96734C5.65667 4.40418 5.1581 4.92691 4.85847 5.53676C4.55884 6.14784 4.40903 6.75156 4.40903 7.34914C4.40903 9.04373 5.54369 10.3272 7.81303 11.1997L12.0778 12.844C15.6194 14.2404 17.3901 16.7313 17.3901 20.3205C17.3901 21.766 17.0352 23.0372 16.3242 24.133C15.6132 25.23 14.6591 26.0644 13.463 26.6374C12.2657 27.2105 10.9812 27.4976 9.60958 27.4976C8.0881 27.4976 6.46715 27.2228 4.74673 26.6755C3.02631 26.1282 1.45448 25.3552 0.0336914 24.3575L1.45571 21.8899C2.62721 22.7378 3.91783 23.436 5.32757 23.9833C6.73608 24.5318 8.16423 24.8054 9.61081 24.8054C10.5085 24.8054 11.3312 24.5993 12.0803 24.1882C12.8281 23.7771 13.4274 23.2286 13.8756 22.5439C14.3251 21.8592 14.5486 21.1181 14.5486 20.3193C14.5486 19.248 14.2428 18.2823 13.6325 17.4222C13.0209 16.562 12.1552 15.908 11.0328 15.4601L7.10447 14.0023C5.28336 13.3299 3.90555 12.4697 2.97105 11.423V11.4242Z" fill="#3B5948"/>
<path d="M30.7852 12.8832H26.7819V27.0509H24.3124V12.8832H20.459L22.0677 10.6033H24.3124V7.42637L26.7819 3.91205V10.6033H30.7852V12.8832Z" fill="#3B5948"/>
<path d="M45.3749 24.9944C44.8763 25.7417 44.1776 26.3466 43.2799 26.808C42.3822 27.2694 41.422 27.5 40.399 27.5C38.4281 27.5 36.9324 26.9331 35.9095 25.7993C34.8866 24.6655 34.3757 22.7157 34.3757 19.9487V10.6033H36.8821V19.9487C36.8821 21.7426 37.2308 23.0642 37.9295 23.9109C38.627 24.7588 39.5873 25.1821 40.8104 25.1821C41.5583 25.1821 42.2816 24.9833 42.9803 24.5845C43.6778 24.1857 44.2525 23.5943 44.7007 22.809C45.1501 22.0236 45.3736 21.0702 45.3736 19.9487V10.6033H47.8431V27.0509H45.3736V24.9944H45.3749Z" fill="#3B5948"/>
<path d="M65.3138 24.8079C64.6654 25.6558 63.8733 26.3159 62.9388 26.7896C62.0031 27.2632 60.9495 27.5 59.778 27.5C58.2319 27.5 56.8848 27.1074 55.7379 26.3221C54.5909 25.5367 53.7117 24.4839 53.1002 23.1636C52.4886 21.8433 52.1841 20.3978 52.1841 18.8271C52.1841 17.2565 52.4886 15.8122 53.1002 14.4907C53.7105 13.1703 54.5897 12.1175 55.7379 11.3322C56.8848 10.5469 58.2319 10.1542 59.778 10.1542C60.9495 10.1542 62.0043 10.391 62.9388 10.8647C63.8746 11.3383 64.6654 11.9985 65.3138 12.8464V0.508209H67.7833V27.0485H65.3138V24.8054V24.8079ZM57.4387 13.2562C56.6282 13.7802 55.9859 14.5213 55.5119 15.4809C55.0379 16.4405 54.8009 17.5559 54.8009 18.8271C54.8009 20.0984 55.0379 21.2138 55.5119 22.1733C55.9859 23.1329 56.6282 23.8741 57.4387 24.398C58.2491 24.9207 59.1407 25.1833 60.1132 25.1833C61.0858 25.1833 61.9331 24.9023 62.7325 24.3428C63.5307 23.782 64.1595 23.0163 64.6212 22.0433C65.0829 21.0714 65.3138 20.0002 65.3138 18.8284C65.3138 17.6565 65.0829 16.5853 64.6212 15.6134C64.1595 14.6416 63.5295 13.8747 62.7325 13.3139C61.9343 12.7531 61.0612 12.4734 60.1132 12.4734C59.1652 12.4734 58.2491 12.7347 57.4387 13.2587V13.2562Z" fill="#3B5948"/>
<path d="M76.1619 2.04203C76.5364 2.41629 76.7231 2.86417 76.7231 3.38813C76.7231 3.91209 76.5364 4.39801 76.1619 4.77103C75.7873 5.14406 75.3391 5.33181 74.8148 5.33181C74.2904 5.33181 73.8041 5.14529 73.4308 4.77103C73.0563 4.39678 72.8696 3.93663 72.8696 3.38813C72.8696 2.83963 73.0563 2.41629 73.4308 2.04203C73.8054 1.66778 74.2659 1.48126 74.8148 1.48126C75.3637 1.48126 75.7873 1.66778 76.1619 2.04203ZM73.5438 10.6021H76.0882V27.0497H73.5438V10.6021Z" fill="#3B5948"/>
<path d="M93.7076 11.331C95.0547 12.1163 96.1267 13.1691 96.9249 14.4894C97.7231 15.811 98.1222 17.2553 98.1222 18.8259C98.1222 20.3966 97.7231 21.842 96.9249 23.1624C96.1267 24.4839 95.0547 25.5355 93.7076 26.3209C92.3605 27.1062 90.9016 27.4988 89.331 27.4988C87.7604 27.4988 86.3003 27.1062 84.9544 26.3209C83.6073 25.5355 82.5353 24.4827 81.7371 23.1624C80.9389 21.842 80.5398 20.3966 80.5398 18.8259C80.5398 17.2553 80.9389 15.811 81.7371 14.4894C82.5353 13.1691 83.6073 12.1163 84.9544 11.331C86.3015 10.5456 87.7604 10.153 89.331 10.153C90.9016 10.153 92.3617 10.5456 93.7076 11.331ZM86.1689 13.3127C85.2332 13.8735 84.4976 14.6391 83.9622 15.6122C83.4256 16.5841 83.1579 17.6565 83.1579 18.8271C83.1579 19.9978 83.4256 21.0702 83.9622 22.0421C84.4976 23.0139 85.2344 23.7808 86.1689 24.3416C87.1046 24.9024 88.157 25.1821 89.3298 25.1821C90.5025 25.1821 91.5561 24.9011 92.4906 24.3416C93.4264 23.7808 94.1607 23.0151 94.6973 22.0421C95.234 21.0702 95.5017 19.999 95.5017 18.8271C95.5017 17.6553 95.234 16.5841 94.6973 15.6122C94.1607 14.6404 93.4251 13.8735 92.4906 13.3127C91.5549 12.7519 90.5013 12.4721 89.3298 12.4721C88.1583 12.4721 87.1034 12.7531 86.1689 13.3127Z" fill="#3B5948"/>
<path d="M115.551 27.4418C113.256 27.4418 111.074 26.8442 109.005 25.6478C106.935 24.4514 105.269 22.8255 104.011 20.769C102.751 18.7124 102.122 16.4509 102.122 13.9845C102.122 11.5181 102.721 9.44312 103.917 7.38655C105.115 5.32999 106.742 3.67958 108.8 2.4341C110.857 1.18863 113.108 0.565277 115.553 0.565277C117.648 0.565277 119.518 0.976348 121.165 1.79848C122.811 2.62062 124.169 3.72989 125.243 5.12507L121.764 7.89088C119.894 5.84781 117.823 4.82566 115.554 4.82566C114.081 4.82566 112.655 5.24286 111.271 6.0785C109.887 6.91413 108.764 8.03568 107.903 9.44312C107.043 10.8518 106.613 12.3648 106.613 13.9845C106.613 15.6042 107 17.224 107.772 18.6204C108.544 20.0168 109.618 21.1248 110.989 21.947C112.361 22.7691 113.883 23.1802 115.554 23.1802C116.751 23.1802 117.935 22.8685 119.108 22.2451C120.279 21.623 121.278 20.85 122.1 19.9272L125.804 22.8059C122.836 25.8969 119.42 27.4418 115.554 27.4418H115.551Z" fill="#3B5948"/>
<path d="M141.775 11.2739C143.122 12.0593 144.2 13.1182 145.011 14.4508C145.821 15.7846 146.227 17.224 146.227 18.7689C146.227 20.3138 145.821 21.7531 145.011 23.0869C144.2 24.4208 143.122 25.4797 141.775 26.2638C140.428 27.0491 138.969 27.4418 137.399 27.4418C135.828 27.4418 134.368 27.0491 133.022 26.2638C131.675 25.4785 130.597 24.4195 129.786 23.0869C128.976 21.7543 128.571 20.315 128.571 18.7689C128.571 17.2228 128.976 15.7846 129.786 14.4508C130.597 13.1182 131.675 12.058 133.022 11.2739C134.369 10.4886 135.828 10.0959 137.399 10.0959C138.969 10.0959 140.429 10.4886 141.775 11.2739ZM135.004 14.5821C134.256 15.0312 133.657 15.6288 133.209 16.3761C132.759 17.1234 132.536 17.9222 132.536 18.7689C132.536 19.6156 132.76 20.4131 133.209 21.1617C133.658 21.9089 134.256 22.5078 135.004 22.9556C135.752 23.4035 136.55 23.6281 137.399 23.6281C138.247 23.6281 139.044 23.4035 139.793 22.9556C140.542 22.5078 141.14 21.9089 141.589 21.1617C142.038 20.4144 142.261 19.6168 142.261 18.7689C142.261 17.921 142.037 17.1246 141.589 16.3761C141.139 15.6288 140.541 15.03 139.793 14.5821C139.045 14.1342 138.247 13.9097 137.399 13.9097C136.55 13.9097 135.753 14.1342 135.004 14.5821Z" fill="#3B5948"/>
<path d="M150.453 0.578827H154.493V27.4418H150.453V0.578827Z" fill="#3B5948"/>
<path d="M159.992 0.578827H164.033V27.4418H159.992V0.578827Z" fill="#3B5948"/>
<path d="M181.447 26.3387C180.138 27.0737 178.586 27.4418 176.789 27.4418C175.342 27.4418 173.946 27.0994 172.599 26.4135C171.252 25.7288 170.154 24.7312 169.307 23.4231C168.458 22.1151 168.035 20.5628 168.035 18.7689C168.035 16.9749 168.428 15.4227 169.214 14.1146C169.999 12.8065 171.009 11.8102 172.244 11.1242C173.478 10.4395 174.757 10.0959 176.079 10.0959C177.676 10.0959 179.084 10.4457 180.306 11.1426C181.528 11.8408 182.476 12.8372 183.149 14.133C183.822 15.4288 184.159 16.9491 184.159 18.694C184.159 19.1922 184.123 19.5665 184.048 19.8156H172.002C172.102 20.9371 172.62 21.9151 173.554 22.7495C174.49 23.5851 175.656 24.0023 177.052 24.0023C178.024 24.0023 178.897 23.7913 179.671 23.3667C180.444 22.9434 181.018 22.3949 181.392 21.7224L184.384 23.3299C183.736 24.6011 182.757 25.6049 181.447 26.3387ZM179.072 14.5269C178.324 13.8667 177.364 13.5367 176.191 13.5367C175.243 13.5367 174.358 13.879 173.535 14.5649C172.712 15.2509 172.238 16.0043 172.113 16.8264H180.381C180.256 15.954 179.82 15.1883 179.072 14.5269Z" fill="#3B5948"/>
<path d="M198.786 26.4515C197.714 27.1117 196.416 27.4418 194.896 27.4418C193.474 27.4418 192.128 27.1117 190.856 26.4515C189.583 25.7914 188.554 24.8134 187.77 23.5176C186.984 22.2218 186.591 20.6769 186.591 18.8817C186.591 16.9884 187.008 15.3748 187.845 14.0409C188.68 12.7083 189.733 11.7169 191.005 11.069C192.278 10.4211 193.574 10.0971 194.896 10.0971C196.217 10.0971 197.42 10.372 198.506 10.9193C199.59 11.4678 200.532 12.1157 201.33 12.863L199.199 15.7417C198.725 15.268 198.101 14.8447 197.328 14.4704C196.555 14.0962 195.807 13.9096 195.084 13.9096C193.737 13.9096 192.646 14.3956 191.81 15.3674C190.974 16.3392 190.556 17.5111 190.556 18.8817C190.556 20.1775 190.98 21.2929 191.828 22.2279C192.676 23.163 193.761 23.6293 195.082 23.6293C195.93 23.6293 196.734 23.4047 197.495 22.9568C198.256 22.5077 198.873 22.0095 199.347 21.461L201.817 24.1152C200.869 25.0122 199.858 25.7914 198.786 26.4515Z" fill="#3B5948"/>
<path d="M214.162 14.5821H210.158V27.4418H206.118V14.5821H202.939L210.16 4.3017V10.9929H214.163V14.5821H214.162Z" fill="#3B5948"/>
<path d="M221.193 5.02567C221.716 5.52508 221.979 6.14721 221.979 6.89449C221.979 7.64178 221.718 8.2909 221.193 8.83817C220.669 9.38667 220.034 9.66031 219.285 9.66031C218.536 9.66031 217.901 9.38667 217.377 8.83817C216.854 8.2909 216.591 7.64178 216.591 6.89449C216.591 6.14721 216.852 5.52386 217.377 5.02567C217.901 4.52748 218.536 4.27838 219.285 4.27838C220.034 4.27838 220.669 4.52748 221.193 5.02567ZM217.266 10.9941H221.306V27.4418H217.266V10.9941Z" fill="#3B5948"/>
<path d="M238.627 11.2739C239.974 12.0593 241.052 13.1182 241.863 14.4508C242.673 15.7846 243.078 17.224 243.078 18.7689C243.078 20.3138 242.673 21.7531 241.863 23.0869C241.052 24.4208 239.974 25.4797 238.627 26.2638C237.28 27.0491 235.821 27.4418 234.25 27.4418C232.68 27.4418 231.22 27.0491 229.874 26.2638C228.527 25.4785 227.449 24.4195 226.638 23.0869C225.828 21.7543 225.422 20.315 225.422 18.7689C225.422 17.2228 225.828 15.7846 226.638 14.4508C227.449 13.1182 228.527 12.058 229.874 11.2739C231.221 10.4886 232.68 10.0959 234.25 10.0959C235.821 10.0959 237.281 10.4886 238.627 11.2739ZM231.856 14.5821C231.108 15.0312 230.509 15.6288 230.06 16.3761C229.611 17.1234 229.388 17.9222 229.388 18.7689C229.388 19.6156 229.612 20.4131 230.06 21.1617C230.51 21.9089 231.108 22.5078 231.856 22.9556C232.604 23.4035 233.402 23.6281 234.25 23.6281C235.099 23.6281 235.896 23.4035 236.645 22.9556C237.394 22.5078 237.992 21.9089 238.44 21.1617C238.89 20.4144 239.113 19.6168 239.113 18.7689C239.113 17.921 238.889 17.1246 238.44 16.3761C237.991 15.6288 237.393 15.03 236.645 14.5821C235.897 14.1342 235.099 13.9097 234.25 13.9097C233.402 13.9097 232.605 14.1342 231.856 14.5821Z" fill="#3B5948"/>
<path d="M253.085 11.1807C253.821 10.7574 254.625 10.5451 255.498 10.5451C257.419 10.5451 258.959 11.0874 260.118 12.1709C261.277 13.2544 261.858 15.2926 261.858 18.283V27.4418H257.818V18.283C257.818 16.8878 257.512 15.8853 256.902 15.2742C256.29 14.6643 255.486 14.3588 254.489 14.3588C253.666 14.3588 252.949 14.7012 252.338 15.3871C251.726 16.073 251.421 17.0387 251.421 18.2842V27.443H247.381V10.9954H251.421V12.8642C251.796 12.1673 252.35 11.6065 253.087 11.1819L253.085 11.1807Z" fill="#3B5948"/>
<path d="M278.046 17.6455C278.262 16.5117 277.081 16.0884 277.081 16.0884L275.805 18.6579C275.805 18.6579 277.783 19.0309 278.046 17.6468V17.6455Z" fill="#3B5948"/>
<path d="M276.414 20.9868C276.631 19.853 275.449 19.4297 275.449 19.4297L274.173 21.9992C274.173 21.9992 276.152 22.3722 276.414 20.9881V20.9868Z" fill="#3B5948"/>
<path d="M273.843 22.7097L272.567 25.2791C272.567 25.2791 274.546 25.6522 274.808 24.268C275.025 23.1342 273.843 22.7109 273.843 22.7109V22.7097Z" fill="#3B5948"/>
<path d="M278.589 17.9106L277.313 20.4801C277.313 20.4801 279.292 20.8531 279.555 19.469C279.771 18.3351 278.589 17.9118 278.589 17.9118V17.9106Z" fill="#3B5948"/>
<path d="M278.053 23.2213C278.053 23.2213 280.031 23.5944 280.294 22.2102C280.51 21.0764 279.329 20.6531 279.329 20.6531L278.053 23.2226V23.2213Z" fill="#3B5948"/>
<path d="M276.597 21.9108L275.321 24.4802C275.321 24.4802 277.3 24.8533 277.562 23.4691C277.778 22.3353 276.597 21.912 276.597 21.912V21.9108Z" fill="#3B5948"/>
<path d="M292.349 4.80057C292.866 4.67786 293.405 4.57233 293.966 4.49134L293.759 3.05935C292.949 3.17593 292.174 3.33667 291.447 3.53423C288.778 0.454287 284.694 0.488645 284.263 0.502142C283.816 0.487418 279.478 0.451833 276.8 3.8005C276.8 3.8005 276.8 3.8005 276.8 3.80173C275.581 3.58822 274.717 3.59436 274.677 3.59558L274.692 5.0423C274.699 5.0423 275.189 5.03984 275.934 5.13433C275.313 6.31968 274.941 7.70749 274.823 9.27691C274.809 9.4303 274.75 10.4586 275.395 11.6402C275.631 12.071 275.981 12.5556 276.503 13.0232L269.858 26.7381L270.671 26.9823C270.785 27.0179 272.43 27.5001 274.483 27.5001C275.929 27.5001 277.581 27.2596 279.042 26.4547C280.725 25.527 281.865 24.0152 282.434 21.9624C283.119 19.4886 282.456 17.1019 280.517 15.0589C280.427 14.9644 280.338 14.8736 280.247 14.7852C280.263 14.7901 280.278 14.7926 280.294 14.7963C281.869 15.2159 283.655 16.135 283.709 16.789H285.152C285.215 16.0282 286.984 15.1533 288.176 14.7938C288.829 14.6527 289.432 14.4674 289.979 14.2404C290.138 14.1741 290.293 14.1042 290.442 14.0318C290.464 14.7742 290.375 15.8822 289.884 17.205C289.091 19.3413 287.071 22.4569 281.991 25.5307C281.436 25.7565 280.989 26.0387 280.684 26.2988L281.498 27.5001C281.883 27.2878 282.256 27.0731 282.619 26.8559C283.593 26.4731 285.198 26.2338 287.092 27.4719L287.878 26.2436C286.936 25.6276 286.019 25.2988 285.165 25.165C288.247 22.8802 290.299 20.3451 291.285 17.594C292.017 15.5521 291.935 13.9398 291.818 13.1459C293.762 11.5126 293.652 9.47324 293.636 9.27814C293.507 7.55902 293.076 6.05708 292.351 4.80057H292.349ZM281.038 21.5771C280.577 23.2385 279.672 24.4521 278.347 25.1846C276.158 26.3945 273.312 26.0632 271.924 25.792L277.436 14.4159C277.973 14.7496 278.768 15.3116 279.493 16.0822C281.065 17.7547 281.584 19.6027 281.038 21.5771ZM285.538 9.57141C285.699 9.23765 285.891 8.91125 286.111 8.59834C286.445 9.08549 287.005 9.40576 287.641 9.40576C288.665 9.40576 289.495 8.57626 289.495 7.55288C289.495 6.98966 289.243 6.48656 288.847 6.14666C289.231 5.92456 289.641 5.71964 290.07 5.53803C290.076 5.53558 290.083 5.5319 290.089 5.53067C290.566 6.08285 290.829 6.78474 290.829 7.53079C290.829 9.22538 289.45 10.6046 287.752 10.6046C286.885 10.6046 286.084 10.2512 285.508 9.63522C285.518 9.61436 285.527 9.5935 285.537 9.57264L285.538 9.57141ZM284.232 1.94763H284.292C284.329 1.94763 287.616 1.84946 289.925 4.03487C289.781 4.09132 289.641 4.14776 289.504 4.20666C288.865 4.47785 288.262 4.79443 287.708 5.14537C286.733 5.7675 285.901 6.50987 285.235 7.35164C284.889 7.78971 284.588 8.25354 284.339 8.73455C284.077 8.23268 283.766 7.76026 283.412 7.3271C282.705 6.46202 281.811 5.72823 280.752 5.14537C280.21 4.84719 279.622 4.58583 279.002 4.36986C278.895 4.33305 278.787 4.29624 278.678 4.26188C278.587 4.23243 278.496 4.20421 278.404 4.17721C280.738 1.84578 284.195 1.9464 284.232 1.94763ZM278.518 5.73314C278.518 5.73314 278.522 5.73436 278.524 5.73559C278.933 5.87916 279.325 6.04236 279.696 6.22519C279.364 6.56018 279.158 7.02033 279.158 7.52957C279.158 8.55294 279.988 9.38244 281.012 9.38244C281.648 9.38244 282.209 9.06095 282.543 8.57258C282.543 8.57258 282.543 8.57258 282.543 8.5738C282.784 8.90879 282.994 9.2671 283.172 9.64503C283.179 9.66099 283.187 9.67694 283.194 9.69289C282.626 10.2708 281.843 10.6021 281.011 10.6021C279.315 10.6021 277.935 9.22292 277.935 7.52834C277.935 6.88045 278.141 6.25096 278.516 5.73191L278.518 5.73314ZM290.604 12.2587C289.897 12.7667 288.968 13.1459 287.843 13.3851L287.789 13.3986C287.312 13.5398 285.438 14.1472 284.4 15.2515C283.26 14.1386 281.177 13.5336 280.646 13.3925L280.612 13.3851C276.091 12.4231 276.255 9.51987 276.263 9.4033V9.3898C276.381 7.83633 276.774 6.50128 277.435 5.41287C277.61 5.45582 277.784 5.50245 277.954 5.55276C277.963 5.55521 277.97 5.55767 277.979 5.56012C277.602 6.14175 277.394 6.82523 277.394 7.52957C277.394 9.52355 279.018 11.1457 281.013 11.1457C281.915 11.1457 282.764 10.8157 283.419 10.2328C283.501 10.4524 283.572 10.6795 283.634 10.9114H285.082C285.09 10.8525 285.139 10.5788 285.284 10.1764C285.944 10.7948 286.817 11.1457 287.754 11.1457C289.749 11.1457 291.373 9.52355 291.373 7.52957C291.373 6.71357 291.106 5.94419 290.62 5.31839C290.714 5.2828 290.81 5.24845 290.906 5.21532C291.635 6.33931 292.068 7.74185 292.19 9.39717C292.192 9.40576 292.193 9.43643 292.193 9.48674C292.193 9.8475 292.085 11.1936 290.604 12.2587Z" fill="#3B5948"/>
</svg>
