<svg width="625" height="633" viewBox="0 0 625 633" fill="none" xmlns="http://www.w3.org/2000/svg">
<path d="M560.331 90.9696C581.003 86.0629 602.56 81.8432 625 78.6048L616.702 21.3441C584.343 26.0054 553.358 32.4332 524.289 40.3329C417.538 -82.8243 254.22 -81.4504 236.984 -80.9107C219.111 -81.4995 45.6768 -82.9224 -61.418 50.9803C-61.418 50.9803 -61.418 50.9803 -61.418 51.0294C-110.178 42.4918 -144.697 42.7371 -146.318 42.7862L-145.729 100.636C-145.434 100.636 -125.842 100.538 -96.0359 104.316C-120.882 151.714 -135.761 207.208 -140.475 269.964C-141.015 276.098 -143.372 317.216 -117.592 364.467C-108.165 381.689 -94.1699 401.07 -73.3009 419.765L-339 968.182L-306.493 977.946C-301.927 979.369 -236.177 998.652 -154.076 998.652C-96.2323 998.652 -30.1881 989.035 28.2451 956.848C95.5169 919.753 141.134 859.303 163.869 777.215C191.269 678.297 164.753 582.862 87.2185 501.166C83.6339 497.388 80.0493 493.757 76.4156 490.224C77.054 490.421 77.6432 490.519 78.2816 490.666C141.281 507.447 212.678 544.198 214.838 570.35H272.535C275.089 539.929 345.798 504.944 393.477 490.568C419.6 484.925 443.71 477.516 465.561 468.439C471.944 465.789 478.132 462.992 484.073 460.098C484.957 489.783 481.421 534.09 461.78 586.984C430.059 672.409 349.284 796.989 146.143 919.901C123.948 928.929 106.074 940.214 93.8965 950.616L126.452 998.652C141.822 990.164 156.749 981.577 171.284 972.892C210.223 957.584 274.401 948.016 350.119 997.524L381.545 948.408C343.883 923.777 307.202 910.627 273.075 905.279C396.325 813.917 478.377 712.545 517.807 602.538C547.073 520.891 543.783 456.418 539.118 424.671C616.849 359.364 612.43 277.815 611.791 270.014C606.636 201.271 589.4 141.214 560.429 90.9696H560.331ZM108.038 761.808C89.6245 828.244 53.4353 876.771 0.452637 906.064C-87.0989 954.443 -200.872 941.195 -256.408 930.352L-35.9824 475.455C-14.5241 488.802 17.2949 511.274 46.266 542.088C109.118 608.966 129.889 682.86 108.038 761.808ZM288.003 281.74C294.435 268.394 302.095 255.343 310.885 242.831C324.241 262.31 346.632 275.116 372.068 275.116C413.02 275.116 446.214 241.947 446.214 201.026C446.214 178.504 436.148 158.387 420.288 144.796C435.657 135.915 452.057 127.72 469.195 120.459C469.44 120.36 469.735 120.213 469.98 120.164C489.033 142.244 499.541 170.31 499.541 200.143C499.541 267.904 444.397 323.055 376.536 323.055C341.869 323.055 309.805 308.923 286.775 284.292C287.168 283.458 287.561 282.624 287.954 281.79L288.003 281.74ZM235.757 -23.1102H238.163C239.636 -23.1102 371.086 -27.0356 463.4 60.352C457.655 62.6091 452.058 64.8662 446.558 67.2214C421.024 78.0651 396.914 90.7243 374.769 104.757C335.78 129.634 302.488 159.319 275.874 192.979C262.027 210.496 249.997 229.043 240.029 248.277C229.57 228.209 217.146 209.318 202.956 191.998C174.721 157.406 138.973 128.064 96.5971 104.757C74.9425 92.8341 51.4219 82.3829 26.6246 73.7472C22.3526 72.2752 18.0317 70.8032 13.6615 69.4294C10.0278 68.2518 6.39398 67.1232 2.71121 66.0438C96.057 -27.1828 234.284 -23.1593 235.757 -23.1102ZM7.2778 128.26C7.2778 128.26 7.42535 128.309 7.52356 128.358C23.875 134.099 39.5389 140.625 54.3682 147.936C41.1103 161.331 32.8608 179.731 32.8608 200.094C32.8608 241.015 66.0547 274.184 107.007 274.184C132.443 274.184 154.883 261.329 168.239 241.8C168.239 241.8 168.239 241.8 168.239 241.849C177.864 255.245 186.26 269.572 193.38 284.684C193.675 285.322 193.969 285.96 194.264 286.598C171.529 309.708 140.25 322.956 106.958 322.956C39.1462 322.956 -16.0464 267.806 -16.0464 200.045C-16.0464 174.137 -7.79678 148.966 7.17981 128.211L7.2778 128.26ZM490.555 389.196C462.271 409.51 425.149 424.671 380.17 434.239L378.009 434.779C358.908 440.422 283.976 464.71 242.484 508.87C196.916 464.366 113.587 440.176 92.3743 434.534L90.9995 434.239C-89.7505 395.771 -83.2199 279.68 -82.8762 275.018V274.479C-78.1623 212.36 -62.4489 158.976 -36.0312 115.454C-29.0094 117.171 -22.0859 119.036 -15.2606 121.047C-14.9168 121.146 -14.6221 121.244 -14.2784 121.342C-29.3532 144.599 -37.6517 171.929 -37.6517 200.094C-37.6517 279.827 27.263 344.693 107.056 344.693C143.098 344.693 177.078 331.494 203.25 308.187C206.54 316.97 209.388 326.048 211.843 335.321H269.736C270.08 332.966 272.044 322.024 277.838 305.93C304.207 330.66 339.12 344.693 376.585 344.693C456.379 344.693 521.294 279.827 521.294 200.094C521.294 167.464 510.638 136.7 491.193 111.676C494.974 110.253 498.804 108.879 502.634 107.554C531.802 152.499 549.086 208.582 553.997 274.773C554.046 275.116 554.095 276.343 554.095 278.355C554.095 292.78 549.774 346.607 490.555 389.196Z" fill="#010101"/>
</svg>
