<svg width="20" height="20" viewBox="0 0 20 20" fill="none" xmlns="http://www.w3.org/2000/svg">
<path d="M7 7.13769C7 6.53686 7.13333 5.99722 7.4 5.51878C7.66667 5.04033 8.02778 4.66759 8.48333 4.40056C8.93889 4.13352 9.43889 4 9.98333 4C10.5389 4 11.0444 4.13352 11.5 4.40056C11.9667 4.66759 12.3333 5.03477 12.6 5.50209C12.8667 5.95827 13 6.45897 13 7.00417C13 7.29346 12.95 7.60501 12.85 7.9388C12.75 8.2726 12.5778 8.58971 12.3333 8.89012L10.5833 11.0431V12.2949H9.35V10.6092L11.3833 8.1057C11.6389 7.77191 11.7667 7.40473 11.7667 7.00417C11.7667 6.5146 11.5944 6.09736 11.25 5.75243C10.9056 5.39638 10.4833 5.21836 9.98333 5.21836C9.49444 5.21836 9.07778 5.40195 8.73333 5.76912C8.38889 6.12517 8.21667 6.58136 8.21667 7.13769V7.60501H7V7.13769ZM9.96667 14.2809C10.2 14.2809 10.4 14.3644 10.5667 14.5313C10.7444 14.6982 10.8333 14.8929 10.8333 15.1154C10.8333 15.3602 10.7444 15.5716 10.5667 15.7497C10.4 15.9166 10.2 16 9.96667 16C9.72222 16 9.51667 15.9166 9.35 15.7497C9.19444 15.5716 9.11667 15.3602 9.11667 15.1154C9.11667 14.8818 9.2 14.6871 9.36667 14.5313C9.53333 14.3644 9.73333 14.2809 9.96667 14.2809Z" fill="black"/>
<circle cx="10" cy="10" r="9.5" stroke="#010101"/>
</svg>
