<svg width="35" height="35" viewBox="0 0 35 35" fill="none" xmlns="http://www.w3.org/2000/svg">
<g clip-path="url(#clip0_107_739)">
<path d="M27.5783 23.2366H8.21423C8.03737 23.2366 7.89331 23.0925 7.89331 22.9157V19.1583C7.89331 18.9815 8.03737 18.8374 8.21423 18.8374H27.5783C27.7552 18.8374 27.8993 18.9815 27.8993 19.1583V22.9157C27.8993 23.0925 27.7552 23.2366 27.5783 23.2366ZM8.53515 22.5947H27.2574V19.4792H8.53515V22.5947Z" fill="#010101"/>
<path d="M29.5389 16.1872C29.3621 16.1872 29.218 16.0431 29.218 15.8663V12.6243C29.218 9.87656 26.9821 7.64067 24.2344 7.64067H11.5581C8.81035 7.64067 6.57446 9.87656 6.57446 12.6243V15.8663C6.57446 16.0431 6.43039 16.1872 6.25354 16.1872C6.07668 16.1872 5.93262 16.0431 5.93262 15.8663V12.6243C5.93379 9.52285 8.45664 7 11.5581 7H24.2344C27.3358 7 29.8587 9.52285 29.8587 12.6243V15.8663C29.8587 16.0431 29.7146 16.1872 29.5378 16.1872H29.5389Z" fill="#010101"/>
<path d="M23.6768 7.46875V19.064" stroke="#010101" stroke-width="0.36" stroke-dasharray="0.72 0.72"/>
<path d="M29.533 13.48L17.8206 13.48" stroke="#010101" stroke-width="0.36" stroke-dasharray="0.72 0.72"/>
<path d="M27.5783 28.6003H8.21423C8.03737 28.6003 7.89331 28.4563 7.89331 28.2794C7.89331 28.1026 8.03737 27.9585 8.21423 27.9585H27.5783C27.7552 27.9585 27.8993 28.1026 27.8993 28.2794C27.8993 28.4563 27.7552 28.6003 27.5783 28.6003Z" fill="#010101"/>
<path d="M17.8839 19.4796C17.7071 19.4796 17.563 19.3355 17.563 19.1586V7.32092C17.563 7.14406 17.7071 7 17.8839 7C18.0608 7 18.2048 7.14406 18.2048 7.32092V19.1586C18.2048 19.3355 18.0608 19.4796 17.8839 19.4796Z" fill="#010101"/>
<path d="M29.5261 28.6H27.5795C27.4026 28.6 27.2585 28.456 27.2585 28.2791V17.8129C27.2585 16.562 28.2764 15.5454 29.5261 15.5454C30.7758 15.5454 31.7936 16.5632 31.7936 17.8129V26.3325C31.7936 27.5834 30.7758 28.6 29.5261 28.6ZM27.8992 27.9582H29.5249C30.4221 27.9582 31.1506 27.2285 31.1506 26.3325V17.8129C31.1506 16.9158 30.4209 16.1872 29.5249 16.1872C28.6289 16.1872 27.8992 16.9169 27.8992 17.8129V27.9582Z" fill="#010101"/>
<path d="M8.21412 28.6H6.26752C5.01664 28.6 4 27.5822 4 26.3325V17.8129C4 16.562 5.01781 15.5454 6.26752 15.5454C7.51723 15.5454 8.53504 16.5632 8.53504 17.8129V28.2791C8.53504 28.456 8.39098 28.6 8.21412 28.6ZM6.26752 16.1872C5.37035 16.1872 4.64184 16.9169 4.64184 17.8129V26.3325C4.64184 27.2297 5.37152 27.9582 6.26752 27.9582H7.8932V17.8129C7.8932 16.9158 7.16352 16.1872 6.26752 16.1872Z" fill="#010101"/>
</g>
<defs>
<clipPath id="clip0_107_739">
<rect width="27.7935" height="21.6" fill="white" transform="translate(4 7)"/>
</clipPath>
</defs>
</svg>
