<svg width="32" height="32" viewBox="0 0 32 32" fill="none" xmlns="http://www.w3.org/2000/svg">
<g clip-path="url(#clip0_421_111)">
<path d="M24 0H8C3.58172 0 0 3.58172 0 8V24C0 28.4183 3.58172 32 8 32H24C28.4183 32 32 28.4183 32 24V8C32 3.58172 28.4183 0 24 0Z" fill="#3B5948"/>
<path d="M8 0.5H24C28.1421 0.5 31.5 3.85786 31.5 8V24C31.5 28.1421 28.1421 31.5 24 31.5H8C3.85786 31.5 0.5 28.1421 0.5 24V8C0.5 3.85786 3.85786 0.5 8 0.5Z" stroke="black" stroke-opacity="0.18"/>
<mask id="mask0_421_111" style="mask-type:luminance" maskUnits="userSpaceOnUse" x="8" y="8" width="16" height="16">
<path d="M8 8H24V24H8V8Z" fill="white"/>
</mask>
<g mask="url(#mask0_421_111)">
<path d="M24 11.0388C23.4009 11.3041 22.7654 11.4781 22.1147 11.5548C22.8007 11.1451 23.314 10.4995 23.5587 9.73885C22.9141 10.1215 22.2088 10.3912 21.4733 10.5362C20.9786 10.0094 20.324 9.66049 19.6109 9.54341C18.8977 9.42633 18.1659 9.54764 17.5287 9.88856C16.8915 10.2295 16.3845 10.771 16.0862 11.4292C15.7879 12.0874 15.715 12.8256 15.8787 13.5295C14.5738 13.4639 13.2974 13.1247 12.1321 12.5339C10.9668 11.9431 9.93878 11.114 9.11467 10.1002C8.69532 10.8227 8.56683 11.6777 8.7553 12.4916C8.94378 13.3054 9.43508 14.0169 10.1293 14.4815C9.60811 14.4652 9.09836 14.3244 8.64267 14.0708C8.63336 14.8358 8.89132 15.5801 9.37206 16.1752C9.85279 16.7704 10.5262 17.1791 11.276 17.3308C10.7926 17.4626 10.2855 17.4822 9.79333 17.3882C10.0031 18.0403 10.4115 18.6106 10.9614 19.0191C11.5112 19.4277 12.1751 19.6542 12.86 19.6668C11.4841 20.7461 9.7362 21.2352 8 21.0268C9.50101 21.9912 11.2479 22.5032 13.032 22.5015C19.1267 22.5015 22.5693 17.3548 22.3627 12.7375C23.0049 12.2729 23.5593 11.6977 24 11.0388Z" fill="white"/>
</g>
</g>
<defs>
<clipPath id="clip0_421_111">
<rect width="32" height="32" fill="white"/>
</clipPath>
</defs>
</svg>
