<svg width="35" height="35" viewBox="0 0 35 35" fill="none" xmlns="http://www.w3.org/2000/svg">
<g clip-path="url(#clip0_107_679)">
<path d="M14.7001 21.7C14.4901 21.7 14.3501 21.8399 14.3501 22.0499C14.3501 22.2599 14.4901 22.3999 14.7001 22.3999C14.9101 22.3999 15.0501 22.2599 15.0501 22.0499C15.0501 21.8399 14.9101 21.7 14.7001 21.7Z" fill="black"/>
<path d="M13.3002 21.7C13.0902 21.7 12.9502 21.8399 12.9502 22.0499C12.9502 22.2599 13.0902 22.3999 13.3002 22.3999C13.5102 22.3999 13.6502 22.2599 13.6502 22.0499C13.6502 21.8399 13.5102 21.7 13.3002 21.7Z" fill="black"/>
<path d="M13.3002 20.3001C13.5102 20.3001 13.6502 20.1601 13.6502 19.9501C13.6502 19.7401 13.5102 19.6001 13.3002 19.6001C13.1252 19.6001 12.9502 19.7751 12.9502 19.9501C12.9502 20.16 13.0902 20.3001 13.3002 20.3001Z" fill="black"/>
<path d="M14.7001 20.3001C14.9101 20.3001 15.0501 20.1601 15.0501 19.9501C15.0501 19.7401 14.9101 19.6001 14.7001 19.6001C14.4901 19.6001 14.3501 19.7751 14.3501 19.9501C14.3501 20.16 14.4901 20.3001 14.7001 20.3001Z" fill="black"/>
<path d="M25.2001 18.5501C25.4101 18.5501 25.5501 18.4101 25.5501 18.2001C25.5501 17.9901 25.4101 17.8501 25.2001 17.8501C24.9901 17.8501 24.8501 17.9901 24.8501 18.2001C24.8501 18.4101 24.9901 18.5501 25.2001 18.5501Z" fill="black"/>
<path d="M23.8002 18.5501C24.0102 18.5501 24.1502 18.4101 24.1502 18.2001C24.1502 17.9901 24.0102 17.8501 23.8002 17.8501C23.5902 17.8501 23.4502 17.9901 23.4502 18.2001C23.4502 18.4101 23.5902 18.5501 23.8002 18.5501Z" fill="black"/>
<path d="M23.8002 16.45C24.0102 16.45 24.1502 16.31 24.1502 16.1C24.1502 15.89 24.0102 15.75 23.8002 15.75C23.6252 15.75 23.4502 15.925 23.4502 16.1C23.4502 16.31 23.5902 16.45 23.8002 16.45Z" fill="black"/>
<path d="M25.2001 16.45C25.4101 16.45 25.5501 16.31 25.5501 16.1C25.5501 15.89 25.4101 15.75 25.2001 15.75C25.0251 15.75 24.8501 15.925 24.8501 16.1C24.8501 16.31 24.9901 16.45 25.2001 16.45Z" fill="black"/>
<path d="M26.2501 7H22.7501H19.2501H15.7501H12.2501H8.75013C8.54013 7 8.40015 7.13999 8.40015 7.34999V27.65C8.40015 27.86 8.54013 28 8.75013 28H12.2501H15.7501H19.2501H22.7501H26.2501C26.4601 28 26.6001 27.86 26.6001 27.65V17.15V7.34999C26.6001 7.13999 26.4601 7 26.2501 7ZM25.9001 16.8H23.1001V7.70001H25.9001V16.8ZM18.9001 13.3H16.1001V7.70001H18.9001V13.3ZM15.4001 13.65V20.65H12.6001V7.70001H15.4001V13.65ZM9.10012 7.70001H11.9001V21V27.3H9.10012V7.70001ZM12.6001 21.35H15.4001V27.3H12.6001V21.35ZM16.1001 21V14H18.9001V27.3H16.1001V21ZM19.6001 13.65V7.70001H22.4001V17.15V27.3H19.6001V13.65ZM25.9001 27.3H23.1001V17.5H25.9001V27.3Z" fill="black"/>
<path d="M18.2001 14.3501C17.9901 14.3501 17.8501 14.4901 17.8501 14.7001C17.8501 14.9101 17.9901 15.0501 18.2001 15.0501C18.4101 15.0501 18.5501 14.9101 18.5501 14.7001C18.5501 14.4901 18.4101 14.3501 18.2001 14.3501Z" fill="black"/>
<path d="M16.8002 14.3501C16.5902 14.3501 16.4502 14.4901 16.4502 14.7001C16.4502 14.9101 16.5902 15.0501 16.8002 15.0501C17.0102 15.0501 17.1502 14.9101 17.1502 14.7001C17.1502 14.4901 17.0102 14.3501 16.8002 14.3501Z" fill="black"/>
<path d="M16.8002 12.95C17.0102 12.95 17.1502 12.81 17.1502 12.6C17.1502 12.39 17.0102 12.25 16.8002 12.25C16.5902 12.25 16.4502 12.425 16.4502 12.6C16.4502 12.81 16.5902 12.95 16.8002 12.95Z" fill="black"/>
<path d="M18.2001 12.95C18.4101 12.95 18.5501 12.81 18.5501 12.6C18.5501 12.39 18.4101 12.25 18.2001 12.25C17.9901 12.25 17.8501 12.425 17.8501 12.6C17.8501 12.81 17.9901 12.95 18.2001 12.95Z" fill="black"/>
<path d="M11.2001 8.05005C10.9901 8.05005 10.8501 8.22506 10.8501 8.40004C10.8501 8.57505 10.9901 8.75002 11.2001 8.75002C11.4101 8.75002 11.5501 8.61004 11.5501 8.40004C11.5501 8.19004 11.4101 8.05005 11.2001 8.05005Z" fill="black"/>
<path d="M9.80018 8.05005C9.59018 8.05005 9.4502 8.22506 9.4502 8.40004C9.4502 8.57505 9.59018 8.75002 9.80018 8.75002C10.0102 8.75002 10.1502 8.61004 10.1502 8.40004C10.1502 8.19004 10.0102 8.05005 9.80018 8.05005Z" fill="black"/>
<path d="M11.2001 26.25C10.9901 26.25 10.8501 26.39 10.8501 26.6C10.8501 26.81 10.9901 26.95 11.2001 26.95C11.4101 26.95 11.5501 26.81 11.5501 26.6C11.5501 26.39 11.4101 26.25 11.2001 26.25Z" fill="black"/>
<path d="M9.80018 26.25C9.59018 26.25 9.4502 26.39 9.4502 26.6C9.4502 26.81 9.59018 26.95 9.80018 26.95C10.0102 26.95 10.1502 26.81 10.1502 26.6C10.1502 26.39 10.0102 26.25 9.80018 26.25Z" fill="black"/>
<path d="M21.7001 8.05005C21.4901 8.05005 21.3501 8.19004 21.3501 8.40004C21.3501 8.61004 21.4901 8.75002 21.7001 8.75002C21.9101 8.75002 22.0501 8.61004 22.0501 8.40004C22.0501 8.19004 21.9101 8.05005 21.7001 8.05005Z" fill="black"/>
<path d="M20.3002 8.05005C20.0902 8.05005 19.9502 8.19004 19.9502 8.40004C19.9502 8.61004 20.0902 8.75002 20.3002 8.75002C20.5102 8.75002 20.6502 8.61004 20.6502 8.40004C20.6502 8.19004 20.5102 8.05005 20.3002 8.05005Z" fill="black"/>
<path d="M21.7001 26.25C21.4901 26.25 21.3501 26.39 21.3501 26.6C21.3501 26.81 21.4901 26.95 21.7001 26.95C21.9101 26.95 22.0501 26.81 22.0501 26.6C22.0501 26.39 21.9101 26.25 21.7001 26.25Z" fill="black"/>
<path d="M20.3002 26.25C20.0902 26.25 19.9502 26.39 19.9502 26.6C19.9502 26.81 20.0902 26.95 20.3002 26.95C20.5102 26.95 20.6502 26.81 20.6502 26.6C20.6502 26.39 20.5102 26.25 20.3002 26.25Z" fill="black"/>
</g>
<defs>
<clipPath id="clip0_107_679">
<rect width="21" height="21" fill="white" transform="translate(7 7)"/>
</clipPath>
</defs>
</svg>
